o Cube001

v -1.000000 1.000000 0.000000
v 1.000000 1.000000 0.000000
v -1.000000 -1.000000 0.000000
v 1.000000 -1.000000 0.000000
vt 1.000000 1.000000
vt 0.000000 1.000000
vt 0.000000 0.000000
vt 1.000000 0.000000

f 4/4 3/3 1/2
f 2/1 4/4 1/2

o SquarePyr
v  0  0  0
v  1  0  0
v  1  1  0
v  0  1  0
v  0.5  0.5  1

vn 1.6 0 0.5
vn 0 1.6 0.5
vn 0 0 -1
vn 0 -1.6 0.5
vn -1.6 0 0.5
vn 0 0 -1

f  9//1 6//1 7//1
f  8//2 9//2 7//2
f  5//3 7//3 6//3
f  9//4 5//4 6//4
f  8//5 5//5 9//5
f  5//6 8//6 7//6
