P3
2 2
65534
65534 65534 65534 0 0 0 0 0 0 65534 65534 65534

